<?xml version="1.0" encoding="utf-8"?>
<!-- Generator: Adobe Illustrator 18.1.1, SVG Export Plug-In . SVG Version: 6.00 Build 0)  -->
<!DOCTYPE svg PUBLIC "-//W3C//DTD SVG 1.1//EN" "http://www.w3.org/Graphics/SVG/1.1/DTD/svg11.dtd" [
	<!ENTITY ns_extend "http://ns.adobe.com/Extensibility/1.0/">
	<!ENTITY ns_ai "http://ns.adobe.com/AdobeIllustrator/10.0/">
	<!ENTITY ns_graphs "http://ns.adobe.com/Graphs/1.0/">
	<!ENTITY ns_vars "http://ns.adobe.com/Variables/1.0/">
	<!ENTITY ns_imrep "http://ns.adobe.com/ImageReplacement/1.0/">
	<!ENTITY ns_sfw "http://ns.adobe.com/SaveForWeb/1.0/">
	<!ENTITY ns_custom "http://ns.adobe.com/GenericCustomNamespace/1.0/">
	<!ENTITY ns_adobe_xpath "http://ns.adobe.com/XPath/1.0/">
]>
<svg version="1.1" id="Layer_1" xmlns:x="&ns_extend;" xmlns:i="&ns_ai;" xmlns:graph="&ns_graphs;"
	 xmlns="http://www.w3.org/2000/svg" xmlns:xlink="http://www.w3.org/1999/xlink" x="0px" y="0px" viewBox="0 0 204.6 27"
	 enable-background="new 0 0 204.6 27" xml:space="preserve">
<metadata>
	<sfw  xmlns="&ns_sfw;">
		<slices></slices>
		<sliceSourceBounds  width="204.6" height="27" y="299" x="301.6" bottomLeftOrigin="true"></sliceSourceBounds>
		<optimizationSettings>
			<targetSettings  fileFormat="GIFFormat" targetSettingsID="0">
				
					<GIFFormat  transparency="true" ditherAlgorithm="diffusion" interlaced="false" includeCaption="false" webShiftPercent="0" noMatteColor="false" numColors="256" autoReduce="false" ditherPercent="100" matteColor="#FFFFFF" lossy="0" reductionAlgorithm="selective" rolloverMasterPalette="false">
					<colorTable  isExact="false"></colorTable>
					<lockedColors></lockedColors>
					<colorShiftEntries></colorShiftEntries>
				</GIFFormat>
			</targetSettings>
		</optimizationSettings>
	</sfw>
</metadata>
<g>
	<path fill="#FFFFFF" d="M13.5,0C6,0,0,6,0,13.5C0,21,6,27,13.5,27C21,27,27,21,27,13.5C27,6,21,0,13.5,0L13.5,0z M85.7,13.5
		c0,6.9-1.3,12.6-2.9,12.6c-0.8,0-1.6-1.5-2.1-3.8C80.4,21,78.3,14,75.2,14c-3.3,0-6.3,9.4-7.7,10.9c-0.8,1-1.7,1.6-2.6,1.6
		c-1.5,0-2.9-1.5-3.9-3.8c-0.4-0.9-3.7-7.8-6.2-6.5c-2.5,1.3-4.5,6-7.7,8.9c0,0-0.5,0.4-0.5,0.4c-1.2,1-2.7,1.5-4.1,1.5
		c-4.9,0-8.9-6-8.9-13.5C33.6,6,37.6,0,42.6,0c1.7,0,3.3,0.7,4.7,2c3.1,2.8,5.1,7.5,7.6,8.8c2.5,1.3,5.7-5.4,6.2-6.5
		c1-2.4,2.4-3.9,3.9-3.9c0.9,0,1.8,0.6,2.6,1.6C69,3.6,72,13,75.2,13c3.1,0,5.1-6.9,5.5-8.2c0.5-2.4,1.3-3.9,2.1-3.9
		C84.4,0.9,85.7,6.6,85.7,13.5L85.7,13.5z"/>
	<path fill="#FFFFFF" d="M131.7,19.4c-1-0.3-1.5-0.5-1.5-1c0-0.7,1-0.8,1.4-0.8c0.3,0,0.8,0,1.1,0.3c0,0,0.1,0.1,0.1,0.1
		c0.3,0.3,0.8,0.2,1-0.2c0.1-0.2,0-0.5-0.1-0.7c-0.5-0.6-1.6-0.7-2.1-0.7c-1.6,0-2.6,0.8-2.6,2c0,1.5,1.3,1.9,2.4,2.1
		c1,0.3,1.7,0.5,1.7,1.1c0,0.8-0.8,1.1-1.6,1.1c-0.7,0-1.4-0.2-1.8-0.5c-0.3-0.2-0.8-0.1-1,0.3c-0.1,0.3,0,0.5,0.2,0.7
		c0.6,0.4,1.6,0.7,2.5,0.7c1.4,0,2.8-0.7,2.8-2.4C134.2,20.1,132.8,19.7,131.7,19.4L131.7,19.4z"/>
	<path fill="#FFFFFF" d="M124.7,18.1c-0.5,0-1,0.1-1.4,0.4c-0.1-0.2-0.3-0.2-0.5-0.2c-0.4,0-0.6,0.3-0.6,0.6v4.4
		c0,0.4,0.3,0.6,0.6,0.6c0.4,0,0.6-0.3,0.6-0.6v-2.7c0-0.7,0.6-1.2,1.2-1.2c0.4,0,0.6-0.3,0.6-0.6C125.3,18.3,125,18.1,124.7,18.1
		L124.7,18.1z"/>
	<path fill="#FFFFFF" d="M196,18.1c-1.6,0-2.7,1.3-2.7,3c0,1.7,1.1,3,2.7,3c0.8,0,1.5-0.3,2-0.9c0.1-0.1,0.1-0.2,0.1-0.2
		c0.1-0.2,0.2-0.4,0.1-0.6c-0.2-0.4-0.8-0.4-1.1-0.1c-0.2,0.3-0.7,0.5-1.1,0.5c-0.7,0-1.2-0.4-1.4-1.1h3.5c0.3,0,0.6-0.3,0.6-0.6
		C198.7,19.3,197.5,18.1,196,18.1L196,18.1z M194.6,20.5c0.2-0.6,0.6-1.1,1.4-1.1c0.7,0,1.2,0.4,1.4,1.1H194.6L194.6,20.5z"/>
	<path fill="#FFFFFF" d="M144,18.1c-0.5,0-1,0.1-1.4,0.4c-0.1-0.2-0.3-0.2-0.5-0.2c-0.4,0-0.6,0.3-0.6,0.6v4.4
		c0,0.4,0.3,0.6,0.6,0.6c0.4,0,0.6-0.3,0.6-0.6v-2.7c0-0.7,0.6-1.2,1.2-1.2c0.7,0,1.3,0.6,1.3,1.2v2.7c0,0.4,0.3,0.6,0.6,0.6
		c0.4,0,0.6-0.3,0.6-0.6v-2.7C146.5,19.2,145.4,18.1,144,18.1L144,18.1z"/>
	<path fill="#FFFFFF" d="M137.7,18.1c-1.6,0-2.7,1.3-2.7,3c0,1.7,1.1,3,2.7,3c0.8,0,1.5-0.3,2-0.9c0.1-0.1,0.1-0.2,0.1-0.2
		c0.1-0.2,0.2-0.4,0.1-0.6c-0.2-0.4-0.8-0.4-1.1-0.1c-0.2,0.3-0.7,0.5-1.1,0.5c-0.7,0-1.2-0.4-1.4-1.1h3.5c0.3,0,0.6-0.3,0.6-0.6
		C140.4,19.3,139.3,18.1,137.7,18.1L137.7,18.1z M136.3,20.5c0.2-0.6,0.6-1.1,1.4-1.1c0.7,0,1.2,0.4,1.4,1.1H136.3L136.3,20.5z"/>
	<path fill="#FFFFFF" d="M191.4,16.3c-0.5,0-0.9,0.4-0.9,0.9c0,0.5,0.4,0.9,0.9,0.9c0.5,0,0.9-0.4,0.9-0.9
		C192.3,16.7,191.9,16.3,191.4,16.3L191.4,16.3z"/>
	<path fill="#FFFFFF" d="M104,16.5c-0.3,0-0.5,0.2-0.6,0.5l-1.1,3.9l-1.1-3.9c-0.1-0.3-0.3-0.5-0.6-0.5c-0.3,0-0.5,0.2-0.6,0.5
		l-1.1,3.9L98,17c-0.1-0.3-0.3-0.5-0.6-0.5c-0.2,0-0.4,0.1-0.5,0.2c-0.1,0.2-0.2,0.3-0.1,0.5l1.7,6.1c0.1,0.3,0.3,0.4,0.6,0.4
		c0.3,0,0.5-0.2,0.6-0.5l1.1-3.9l1.1,3.9c0.1,0.3,0.3,0.4,0.6,0.4c0.3,0,0.5-0.2,0.6-0.5l1.7-6.1c0.1-0.2,0-0.4-0.1-0.5
		C104.4,16.6,104.2,16.5,104,16.5L104,16.5z"/>
	<path fill="#FFFFFF" d="M110.8,22.7C110.8,22.7,110.7,22.7,110.8,22.7l-0.1-3.8c0-0.4-0.3-0.6-0.6-0.6c-0.2,0-0.4,0.1-0.5,0.3
		c-0.4-0.3-1-0.5-1.5-0.5c-1.6,0-2.7,1.3-2.7,3c0,1.7,1.1,3,2.7,3c0.7,0,1.3-0.2,1.7-0.6c0.3,0.3,0.7,0.5,1,0.5
		c0.4,0,0.6-0.3,0.6-0.6C111.4,22.9,111.1,22.7,110.8,22.7L110.8,22.7z M108,22.8c-0.9,0-1.5-0.7-1.5-1.8c0-1.1,0.6-1.8,1.5-1.8
		c0.9,0,1.5,0.7,1.5,1.8C109.5,22.1,108.9,22.8,108,22.8L108,22.8z"/>
	<path fill="#FFFFFF" d="M114.4,19.5c0.4,0,0.6-0.3,0.6-0.6s-0.3-0.6-0.6-0.6h-0.5v-1.1c0-0.4-0.3-0.6-0.6-0.6
		c-0.4,0-0.6,0.3-0.6,0.6v1.1h-0.1c-0.4,0-0.6,0.3-0.6,0.6s0.3,0.6,0.6,0.6h0.1v3c0,0.9,0.5,1.5,1.4,1.5h0.3c0.4,0,0.6-0.3,0.6-0.6
		c0-0.4-0.3-0.6-0.6-0.6h-0.3c-0.1,0-0.2,0-0.2,0c0,0,0-0.1,0-0.2v-3H114.4L114.4,19.5z"/>
	<path fill="#FFFFFF" d="M202.2,20.4c-0.9-0.1-1.3-0.2-1.3-0.6c0-0.3,0.5-0.5,1.2-0.5c0.4,0,0.8,0.1,1,0.2c0.3,0.1,0.4,0.2,0.4,0.2
		h0c0.4,0.2,0.8,0,0.9-0.4c0.1-0.3,0-0.5-0.3-0.7c-0.6-0.3-1.4-0.5-2.1-0.5c-1.5,0-2.4,0.7-2.4,1.8c0,1.4,1.4,1.6,2.4,1.8
		c0.9,0.1,1.4,0.2,1.4,0.7c0,0.3-0.4,0.5-1.2,0.5c-0.6,0-1.1-0.1-1.4-0.2c-0.3-0.1-0.4-0.2-0.4-0.2c-0.4-0.2-0.8,0-0.9,0.4
		c-0.1,0.3,0.1,0.5,0.3,0.7c0.4,0.2,1.2,0.5,2.4,0.5c1.8,0,2.4-1,2.4-1.8C204.6,20.8,203.2,20.6,202.2,20.4L202.2,20.4z"/>
	<path fill="#FFFFFF" d="M118.4,18.1c-1.6,0-2.7,1.3-2.7,3c0,1.7,1.1,3,2.7,3c0.8,0,1.5-0.3,2-0.9c0.1-0.1,0.1-0.2,0.1-0.2
		c0.1-0.2,0.2-0.4,0.1-0.6c-0.2-0.4-0.8-0.4-1.1-0.1c-0.2,0.3-0.7,0.5-1.1,0.5c-0.7,0-1.2-0.4-1.4-1.1h3.5c0.3,0,0.6-0.3,0.6-0.6
		C121.1,19.3,119.9,18.1,118.4,18.1L118.4,18.1z M117,20.5c0.2-0.6,0.6-1.1,1.4-1.1c0.7,0,1.2,0.4,1.4,1.1H117L117,20.5z"/>
	<path fill="#FFFFFF" d="M184.9,18.2c-0.4,0-0.6,0.3-0.6,0.6v4.4c0,0.4,0.3,0.6,0.6,0.6c0.4,0,0.6-0.3,0.6-0.6v-4.4
		C185.6,18.5,185.3,18.2,184.9,18.2L184.9,18.2z"/>
	<path fill="#FFFFFF" d="M160.9,18.2c-0.4,0-0.6,0.3-0.6,0.6v4.4c0,0.4,0.3,0.6,0.6,0.6c0.4,0,0.6-0.3,0.6-0.6v-4.4
		C161.5,18.5,161.3,18.2,160.9,18.2L160.9,18.2z"/>
	<path fill="#FFFFFF" d="M189.1,19.5c0.4,0,0.6-0.3,0.6-0.6s-0.3-0.6-0.6-0.6h-0.5v-1.1c0-0.4-0.3-0.6-0.6-0.6
		c-0.4,0-0.6,0.3-0.6,0.6v1.1h-0.1c-0.4,0-0.6,0.3-0.6,0.6s0.3,0.6,0.6,0.6h0.1v3c0,0.9,0.5,1.5,1.5,1.5h0.3c0.4,0,0.6-0.3,0.6-0.6
		c0-0.4-0.3-0.6-0.6-0.6h-0.3c-0.1,0-0.2,0-0.2,0c0,0,0-0.1,0-0.2v-3H189.1L189.1,19.5z"/>
	<path fill="#FFFFFF" d="M191.4,18.2c-0.4,0-0.6,0.3-0.6,0.6v4.4c0,0.4,0.3,0.6,0.6,0.6c0.4,0,0.6-0.3,0.6-0.6v-4.4
		C192,18.5,191.7,18.2,191.4,18.2L191.4,18.2z"/>
	<path fill="#FFFFFF" d="M166.9,18.2c-0.2,0-0.5,0.1-0.6,0.4l-1.3,3.1l-1.3-3.1c-0.1-0.2-0.3-0.4-0.6-0.4c-0.2,0-0.4,0.1-0.5,0.3
		c-0.1,0.2-0.1,0.4,0,0.6l1.9,4.4c0.1,0.3,0.3,0.4,0.6,0.4c0.3,0,0.5-0.2,0.6-0.4l1.8-4.4c0.1-0.2,0.1-0.4,0-0.6
		C167.3,18.3,167.1,18.2,166.9,18.2L166.9,18.2z"/>
	<path fill="#FFFFFF" d="M184.9,16.3c-0.5,0-0.9,0.4-0.9,0.9c0,0.5,0.4,0.9,0.9,0.9c0.5,0,0.9-0.4,0.9-0.9
		C185.8,16.7,185.4,16.3,184.9,16.3L184.9,16.3z"/>
	<path fill="#FFFFFF" d="M170.9,18.1c-1.6,0-2.7,1.3-2.7,3c0,1.7,1.1,3,2.7,3c0.8,0,1.5-0.3,2-0.9c0.1-0.1,0.1-0.2,0.1-0.2
		c0.1-0.2,0.2-0.4,0.1-0.6c-0.2-0.4-0.8-0.4-1.1-0.1c-0.2,0.3-0.7,0.5-1.1,0.5c-0.7,0-1.2-0.4-1.4-1.1h3.5c0.3,0,0.6-0.3,0.6-0.6
		C173.6,19.3,172.5,18.1,170.9,18.1L170.9,18.1z M169.6,20.5c0.2-0.6,0.6-1.1,1.4-1.1c0.7,0,1.2,0.4,1.4,1.1H169.6L169.6,20.5z"/>
	<path fill="#FFFFFF" d="M182,22.2c-0.3,0.4-0.8,0.6-1.4,0.6c-1.2,0-1.8-0.9-1.8-2.6c0-1.7,0.6-2.6,1.8-2.6c0.6,0,1,0.2,1.4,0.6
		c0.3,0.4,0.9,0.3,1.1-0.1c0.1-0.2,0.1-0.4,0-0.6c-0.5-0.8-1.3-1.2-2.4-1.2c-1.9,0-3.1,1.4-3.1,3.9c0,2.4,1.1,3.8,3.1,3.8
		c1,0,1.8-0.4,2.4-1.2c0.1-0.2,0.1-0.4,0-0.6C182.9,21.9,182.3,21.8,182,22.2L182,22.2z"/>
	<path fill="#FFFFFF" d="M160.9,16.3c-0.5,0-0.9,0.4-0.9,0.9c0,0.5,0.4,0.9,0.9,0.9c0.5,0,0.9-0.4,0.9-0.9
		C161.8,16.7,161.4,16.3,160.9,16.3L160.9,16.3z"/>
	<path fill="#FFFFFF" d="M154.4,16.3c-0.5,0-0.9,0.4-0.9,0.9c0,0.5,0.4,0.9,0.9,0.9c0.5,0,0.9-0.4,0.9-0.9
		C155.3,16.7,154.9,16.3,154.4,16.3L154.4,16.3z"/>
	<path fill="#FFFFFF" d="M154.4,18.2c-0.4,0-0.6,0.3-0.6,0.6v4.4c0,0.4,0.3,0.6,0.6,0.6c0.4,0,0.6-0.3,0.6-0.6v-4.4
		C155.1,18.5,154.8,18.2,154.4,18.2L154.4,18.2z"/>
	<path fill="#FFFFFF" d="M158.6,19.5c0.4,0,0.6-0.3,0.6-0.6s-0.3-0.6-0.6-0.6h-0.5v-1.1c0-0.4-0.3-0.6-0.6-0.6
		c-0.4,0-0.6,0.3-0.6,0.6v1.1h-0.1c-0.4,0-0.6,0.3-0.6,0.6s0.3,0.6,0.6,0.6h0.1v3c0,0.9,0.5,1.5,1.4,1.5h0.3c0.4,0,0.6-0.3,0.6-0.6
		c0-0.4-0.3-0.6-0.6-0.6h-0.3c-0.1,0-0.2,0-0.2,0c0,0,0-0.1,0-0.2v-3H158.6L158.6,19.5z"/>
	<path fill="#FFFFFF" d="M150.2,20.4c-0.9-0.1-1.3-0.2-1.3-0.6c0-0.3,0.5-0.5,1.2-0.5c0.4,0,0.8,0.1,1,0.2c0.3,0.1,0.4,0.2,0.4,0.2
		c0.4,0.2,0.8,0,0.9-0.4c0.1-0.3,0-0.5-0.3-0.7c-0.6-0.3-1.4-0.5-2.1-0.5c-1.5,0-2.4,0.7-2.4,1.8c0,1.4,1.4,1.6,2.4,1.8
		c0.9,0.1,1.4,0.2,1.4,0.7c0,0.3-0.4,0.5-1.2,0.5c-0.6,0-1.1-0.1-1.4-0.2c-0.3-0.1-0.4-0.2-0.4-0.2c-0.4-0.2-0.8,0-0.9,0.4
		c-0.1,0.3,0.1,0.5,0.3,0.7c0.4,0.2,1.2,0.5,2.4,0.5c1.8,0,2.4-1,2.4-1.8C152.6,20.8,151.2,20.6,150.2,20.4L150.2,20.4z"/>
	<path fill="#FFFFFF" d="M99.6,12.8c0.9,0,1.7-0.4,2.2-1.1c0.1-0.1,0.1-0.2,0-0.4c-0.1-0.2-0.4-0.3-0.6,0c-0.4,0.5-0.9,0.8-1.6,0.8
		c-1.7,0-2.1-1.6-2.1-2.9c0-1.3,0.4-2.9,2.1-2.9c0.7,0,1.2,0.2,1.6,0.8c0.1,0.2,0.5,0.2,0.6,0c0.1-0.1,0-0.2,0-0.3
		c-0.5-0.7-1.2-1-2.1-1c-1.8,0-2.8,1.3-2.8,3.6C96.8,11.5,97.8,12.8,99.6,12.8L99.6,12.8z"/>
	<path fill="#FFFFFF" d="M108,12.5c0.1-0.1,0-0.2,0-0.4l-1.7-2.3c1-0.1,1.8-1,1.8-2c0-1.1-0.9-2-2-2h-2.5c-0.2,0-0.3,0.2-0.3,0.3
		v6.1c0,0.4,0.7,0.4,0.7,0V9.8h1.6l2,2.7c0.1,0.1,0.2,0.1,0.3,0.1C107.8,12.7,108,12.6,108,12.5L108,12.5z M103.9,9.1V6.5h2.2
		c0.7,0,1.3,0.6,1.3,1.3c0,0.7-0.6,1.3-1.3,1.3H103.9L103.9,9.1z"/>
	<path fill="#FFFFFF" d="M112.3,12.8c0.9,0,1.7-0.4,2.2-1.1c0.1-0.1,0.1-0.2,0-0.4c-0.1-0.2-0.4-0.3-0.6,0c-0.4,0.5-0.9,0.8-1.6,0.8
		c-1.7,0-2.1-1.6-2.1-2.9c0-1.3,0.4-2.9,2.1-2.9c0.7,0,1.2,0.2,1.6,0.8c0.1,0.2,0.5,0.2,0.6,0c0.1-0.1,0-0.2,0-0.3
		c-0.5-0.7-1.2-1-2.1-1c-1.8,0-2.8,1.3-2.8,3.6C109.5,11.5,110.6,12.8,112.3,12.8L112.3,12.8z"/>
	<path fill="#FFFFFF" d="M120.9,7.9c0-0.2-0.1-0.3-0.3-0.3H120V6.8c0-0.2,0.2-0.3,0.3-0.3h0.3c0.2,0,0.3-0.2,0.3-0.3
		c0-0.2-0.1-0.3-0.3-0.3h-0.3c-0.6,0-1,0.5-1,1v0.7h-0.6c-0.2,0-0.3,0.2-0.3,0.3c0,0.2,0.1,0.3,0.3,0.3h0.6v4.1
		c0,0.2,0.2,0.3,0.3,0.3c0.2,0,0.3-0.1,0.3-0.3V8.2h0.6c0.1,0,0.2-0.1,0.3-0.1C120.9,8,120.9,8,120.9,7.9L120.9,7.9z"/>
	<path fill="#FFFFFF" d="M124.4,7.4c-1.7,0-2.4,1.4-2.4,2.7c0,1.3,0.8,2.7,2.4,2.7s2.4-1.4,2.4-2.7C126.8,8.8,126.1,7.4,124.4,7.4
		L124.4,7.4z M124.4,12.1c-1,0-1.7-0.8-1.7-2c0-1.2,0.7-2,1.7-2c1,0,1.7,0.8,1.7,2C126.2,11.3,125.5,12.1,124.4,12.1L124.4,12.1z"/>
	<path fill="#FFFFFF" d="M128.7,12.7c0.2,0,0.3-0.1,0.3-0.3V9.6c0-0.8,0.7-1.5,1.5-1.5c0.1,0,0.2-0.1,0.3-0.1
		c0.1-0.1,0.1-0.1,0.1-0.2c0-0.2-0.1-0.3-0.3-0.3c-0.6,0-1.1,0.2-1.5,0.6V7.9c0-0.4-0.7-0.4-0.7,0v4.4
		C128.3,12.5,128.5,12.7,128.7,12.7L128.7,12.7z"/>
</g>
</svg>
